<svg width="480" height="100" viewBox="0 0 480 100" fill="none" xmlns="http://www.w3.org/2000/svg">
  <defs>
    <linearGradient id="bgGrad" x1="0" y1="0" x2="100" y2="100" gradientUnits="userSpaceOnUse">
      <stop offset="0%" stop-color="#40916C"/>
      <stop offset="100%" stop-color="#2D6A4F"/>
    </linearGradient>
    <linearGradient id="leafGrad" x1="0" y1="0" x2="1" y2="1">
      <stop offset="0%" stop-color="#B7E4C7"/>
      <stop offset="100%" stop-color="#74C69D"/>
    </linearGradient>
  </defs>
  <!-- Icon (scaled 100x100) -->
  <g transform="scale(1.5625) translate(0, 0)">
    <circle cx="32" cy="32" r="30" fill="url(#bgGrad)"/>
    <ellipse cx="32" cy="38" rx="16" ry="5" fill="white" fill-opacity="0.15"/>
    <path d="M16 36 Q16 48 32 48 Q48 48 48 36" fill="white" fill-opacity="0.92"/>
    <path d="M24 28 Q22 24 24 20" stroke="white" stroke-width="2" stroke-linecap="round" stroke-opacity="0.7" fill="none"/>
    <path d="M32 26 Q30 22 32 18" stroke="white" stroke-width="2" stroke-linecap="round" stroke-opacity="0.7" fill="none"/>
    <path d="M40 28 Q38 24 40 20" stroke="white" stroke-width="2" stroke-linecap="round" stroke-opacity="0.7" fill="none"/>
    <ellipse cx="32" cy="43" rx="6" ry="2.5" fill="url(#leafGrad)" opacity="0.9"/>
    <path d="M32 43 Q35 40 38 42" stroke="#2D6A4F" stroke-width="0.8" fill="none" stroke-opacity="0.6"/>
  </g>
  <!-- Wordmark -->
  <text x="118" y="72" font-family="Georgia, Times New Roman, serif" font-size="62" font-weight="700" letter-spacing="-2" fill="#F0FFF4">mealio</text>
  <!-- Tagline -->
  <text x="120" y="92" font-family="Arial, sans-serif" font-size="13" letter-spacing="4" fill="#74C69D">EAT. ENJOY. REPEAT.</text>
</svg>